<svg width="174" height="165" viewBox="0 0 174 165" fill="none" xmlns="http://www.w3.org/2000/svg">
<g id="NodeBlue">
<g id="ContentG">
<g id="ContentBG">
<rect x="5" y="31.547" width="164.42" height="106.188" rx="5.13812" fill="#404242" fill-opacity="0.7"/>
<rect x="5" y="31.547" width="164.42" height="106.188" rx="5.13812" fill="#2E9380" fill-opacity="0.1" style="mix-blend-mode:overlay"/>
</g>
<g id="Output">
<text id="Parameter" fill="#B7C2CC" xml:space="preserve" style="white-space: pre" font-family="Roboto" font-size="10.2762" letter-spacing="0em"><tspan x="98.5996" y="77.366">Parameter</tspan></text>
<g id="Elements/Socket/Parameter/Passive">
<path id="Socket" d="M154.5 73.5C154.5 71.0147 156.515 69 159 69C161.485 69 163.5 71.0147 163.5 73.5C163.5 75.9853 161.485 78 159 78C156.515 78 154.5 75.9853 154.5 73.5ZM154.5 73.5L151.5 73.5M158.5 73.5L157.5 73.5M160.5 73.5L159.5 73.5M151 75L151 72" stroke="#D8562D"/>
</g>
</g>
<g id="Parameter_2">
<text id="Parameter_3" fill="#B7C2CC" xml:space="preserve" style="white-space: pre" font-family="Roboto" font-size="10.2762" letter-spacing="0em"><tspan x="24.7017" y="78.3052">Parameter</tspan></text>
<g id="Elements/Socket/Parameter/Active">
<g id="Socket_2">
<path d="M19 74.5C19 76.9853 16.9853 79 14.5 79C12.0147 79 10 76.9853 10 74.5C10 72.0147 12.0147 70 14.5 70C16.9853 70 19 72.0147 19 74.5Z" fill="#D8562D" fill-opacity="0.6"/>
<path d="M19 74.5C19 76.9853 16.9853 79 14.5 79C12.0147 79 10 76.9853 10 74.5C10 72.0147 12.0147 70 14.5 70C16.9853 70 19 72.0147 19 74.5ZM19 74.5H22M15 74.5H16M13 74.5H14M22.5 73V76" stroke="#D8562D"/>
</g>
</g>
</g>
<g id="Elements/Socket/TriggerB/Passive">
<path id="Elements/Socket/TriggerB/Passive_2" fill-rule="evenodd" clip-rule="evenodd" d="M15.5 43C12.464 43 10 45.464 10 48.5C10 51.536 12.464 54 15.5 54C18.536 54 21 51.536 21 48.5C21 45.464 18.536 43 15.5 43ZM15.5 52.9C13.0745 52.9 11.1 50.9255 11.1 48.5C11.1 46.0745 13.0745 44.1 15.5 44.1C17.9255 44.1 19.9 46.0745 19.9 48.5C19.9 50.9255 17.9255 52.9 15.5 52.9ZM17.7 48.5L14.4 50.975V46.025L17.7 48.5Z" fill="white" fill-opacity="0.71"/>
</g>
<g id="Elements/Socket/TriggerB/Active">
<path id="Elements/Socket/TriggerB/Active_2" fill-rule="evenodd" clip-rule="evenodd" d="M152 48.5C152 45.464 154.464 43 157.5 43C160.536 43 163 45.464 163 48.5C163 51.536 160.536 54 157.5 54C154.464 54 152 51.536 152 48.5ZM159.7 48.5L156.4 50.975V46.025L159.7 48.5Z" fill="white" fill-opacity="0.71"/>
</g>
</g>
<g id="Body">
<g id="Header" filter="url(#filter0_d)">
<path d="M10.1381 5C7.30042 5 5 7.30042 5 10.1381V36.6851C5 33.8474 7.30042 31.547 10.1381 31.547H164.282C167.119 31.547 169.42 33.8474 169.42 36.6851V10.1381C169.42 7.30042 167.119 5 164.282 5H10.1381Z" fill="url(#paint0_linear)"/>
<path d="M5.42818 10.1381C5.42818 7.53689 7.53689 5.42818 10.1381 5.42818H164.282C166.883 5.42818 168.992 7.53689 168.992 10.1381V33.7172C168.006 32.1558 166.265 31.1188 164.282 31.1188H10.1381C8.15501 31.1188 6.41411 32.1558 5.42818 33.7172V10.1381Z" stroke="#CAF5FF" stroke-opacity="0.08" stroke-width="0.856354" style="mix-blend-mode:color-dodge"/>
</g>
<g id="Footer" filter="url(#filter1_d)">
<g id="Footer_2" filter="url(#filter2_d)">
<path d="M169.42 132.597C169.42 135.434 167.119 137.735 164.282 137.735H10.1381C7.30042 137.735 5 135.434 5 132.597V154.862C5 157.7 7.30042 160 10.1381 160H164.282C167.119 160 169.42 157.7 169.42 154.862V132.597Z" fill="url(#paint1_linear)"/>
<path d="M169.42 132.597C169.42 135.434 167.119 137.735 164.282 137.735H10.1381C7.30042 137.735 5 135.434 5 132.597V154.862C5 157.7 7.30042 160 10.1381 160H164.282C167.119 160 169.42 157.7 169.42 154.862V132.597Z" fill="#626262" fill-opacity="0.85"/>
<path d="M164.282 138.163C166.265 138.163 168.006 137.126 168.992 135.565V154.862C168.992 157.463 166.883 159.572 164.282 159.572H10.1381C7.53689 159.572 5.42818 157.463 5.42818 154.862V135.565C6.41411 137.126 8.15501 138.163 10.1381 138.163H164.282Z" stroke="#CAF5FF" stroke-opacity="0.08" stroke-width="0.856354" style="mix-blend-mode:color-dodge"/>
</g>
<text id="Status" fill="white" fill-opacity="0.47" xml:space="preserve" style="white-space: pre" font-family="Roboto" font-size="7.70718" letter-spacing="0em"><tspan x="9.28177" y="152.074">Ready</tspan></text>
</g>
</g>
<text id="Title" fill="#FFF3EA" xml:space="preserve" style="white-space: pre" font-family="Roboto" font-size="10.2762" font-weight="bold" letter-spacing="0em"><tspan x="13" y="22.0124">On Event</tspan></text>
</g>
<defs>
<filter id="filter0_d" x="0.718232" y="0.718232" width="172.983" height="40.2486" filterUnits="userSpaceOnUse" color-interpolation-filters="sRGB">
<feFlood flood-opacity="0" result="BackgroundImageFix"/>
<feColorMatrix in="SourceAlpha" type="matrix" values="0 0 0 0 0 0 0 0 0 0 0 0 0 0 0 0 0 0 127 0"/>
<feOffset/>
<feGaussianBlur stdDeviation="2.14088"/>
<feColorMatrix type="matrix" values="0 0 0 0 0 0 0 0 0 0 0 0 0 0 0 0 0 0 0.33 0"/>
<feBlend mode="normal" in2="BackgroundImageFix" result="effect1_dropShadow"/>
<feBlend mode="normal" in="SourceGraphic" in2="effect1_dropShadow" result="shape"/>
</filter>
<filter id="filter1_d" x="0.718232" y="128.315" width="172.983" height="35.9669" filterUnits="userSpaceOnUse" color-interpolation-filters="sRGB">
<feFlood flood-opacity="0" result="BackgroundImageFix"/>
<feColorMatrix in="SourceAlpha" type="matrix" values="0 0 0 0 0 0 0 0 0 0 0 0 0 0 0 0 0 0 127 0"/>
<feOffset/>
<feGaussianBlur stdDeviation="2.14088"/>
<feColorMatrix type="matrix" values="0 0 0 0 0 0 0 0 0 0 0 0 0 0 0 0 0 0 0.33 0"/>
<feBlend mode="normal" in2="BackgroundImageFix" result="effect1_dropShadow"/>
<feBlend mode="normal" in="SourceGraphic" in2="effect1_dropShadow" result="shape"/>
</filter>
<filter id="filter2_d" x="0.718232" y="128.315" width="172.983" height="35.9669" filterUnits="userSpaceOnUse" color-interpolation-filters="sRGB">
<feFlood flood-opacity="0" result="BackgroundImageFix"/>
<feColorMatrix in="SourceAlpha" type="matrix" values="0 0 0 0 0 0 0 0 0 0 0 0 0 0 0 0 0 0 127 0"/>
<feOffset/>
<feGaussianBlur stdDeviation="2.14088"/>
<feColorMatrix type="matrix" values="0 0 0 0 0 0 0 0 0 0 0 0 0 0 0 0 0 0 0.33 0"/>
<feBlend mode="normal" in2="BackgroundImageFix" result="effect1_dropShadow"/>
<feBlend mode="normal" in="SourceGraphic" in2="effect1_dropShadow" result="shape"/>
</filter>
<linearGradient id="paint0_linear" x1="87.2099" y1="5" x2="87.2099" y2="160" gradientUnits="userSpaceOnUse">
<stop stop-color="#2F4669"/>
<stop offset="0.510417" stop-color="#2E9380"/>
</linearGradient>
<linearGradient id="paint1_linear" x1="87.2099" y1="132.597" x2="87.2099" y2="277.205" gradientUnits="userSpaceOnUse">
<stop stop-color="#2F4669"/>
<stop offset="0.510417" stop-color="#2E9380"/>
</linearGradient>
</defs>
</svg>
